<?xml version="1.0" encoding="UTF-8" standalone="no"?>
<svg width="15px" height="13px" viewBox="0 0 15 13" version="1.1" xmlns="http://www.w3.org/2000/svg">
    <title>Volume Medium</title>
    <g id="Page-1" stroke="none" stroke-width="1" fill="none" fill-rule="evenodd">
        <g id="Player" transform="translate(-2441.000000, -315.000000)" fill="#333333">
            <g id="Volume-Medium" transform="translate(2441.000000, 315.000000)">
                <path d="M4.54566667,4 L0,4 L0,9 L4.54566667,9 L9,12.5 L9,0.5 L4.54566667,4 Z" id="Fill-1"></path>
                <path d="M12.0246699,4.70533009 C13.0107767,5.69143687 13.0107767,7.30856313 12.0246699,8.29466991 L11.6926699,8.62666991 C11.3997767,8.91956313 11.3997767,9.39443687 11.6926699,9.68733009 C11.9855631,9.9802233 12.4604369,9.9802233 12.7533301,9.68733009 L13.0853301,9.35533009 C14.6572233,7.78343687 14.6572233,5.21656313 13.0853301,3.64466991 L12.7533301,3.31266991 C12.4604369,3.0197767 11.9855631,3.0197767 11.6926699,3.31266991 C11.3997767,3.60556313 11.3997767,4.08043687 11.6926699,4.37333009 L12.0246699,4.70533009 Z" id="Stroke-3"></path>
            </g>
        </g>
    </g>
</svg>
